<svg xmlns="http://www.w3.org/2000/svg" width="20.855" height="18.625" viewBox="0 0 20.855 18.625"><defs><style>.a{fill:#ff6820;stroke:#ff6820;stroke-width:0.5px;}</style></defs><path class="a" d="M20.175,8.588l-2.07-1.811V1.733a.565.565,0,0,0-.565-.565h-3.4a.565.565,0,0,0-.565.565V2.818L10.557.178a.565.565,0,0,0-.745,0L.193,8.588A.643.643,0,0,0,0,9.012a.565.565,0,0,0,.565.565.656.656,0,0,0,.373-.14l1.324-1.16v8.155a1.7,1.7,0,0,0,1.7,1.7H16.408a1.7,1.7,0,0,0,1.7-1.7V8.279L19.43,9.436a.659.659,0,0,0,.359.129A.565.565,0,0,0,20.355,9a.645.645,0,0,0-.179-.412ZM6.21,17a2.831,2.831,0,0,1,2.829-2.827H11.3A2.831,2.831,0,0,1,14.129,17Zm10.765-.565a.565.565,0,0,1-.565.565H15.262A3.964,3.964,0,0,0,11.3,13.041H9.04A3.964,3.964,0,0,0,5.078,17H3.961a.565.565,0,0,1-.565-.565V7.289l6.789-5.937,6.79,5.937Zm0-10.647L14.713,3.808V2.3h2.262Zm-9.633,3.3A2.829,2.829,0,1,0,10.17,6.256,2.829,2.829,0,0,0,7.341,9.083Zm4.526,0a1.7,1.7,0,1,1-1.7-1.7,1.7,1.7,0,0,1,1.7,1.7Z" transform="translate(0.25 0.245)"/></svg>