<svg xmlns="http://www.w3.org/2000/svg" width="95" height="95" viewBox="0 0 95 95"><defs><style>.a{fill:#fff;}.b{fill:#e2f1f8;}.c{fill:#012f57;}</style></defs><g transform="translate(-127 -1651)"><path class="a" d="M47.5,0A47.5,47.5,0,1,1,0,47.5,47.5,47.5,0,0,1,47.5,0Z" transform="translate(127 1651)"/><g transform="translate(-1729.939 1643.753)"><path class="b" d="M1929.512,43.066h-37.757a4.663,4.663,0,0,0-4.663,4.663v23.5a4.663,4.663,0,0,0,4.663,4.663h1.913v9.643l13.265-9.643h22.579a4.663,4.663,0,0,0,4.663-4.663v-23.5A4.663,4.663,0,0,0,1929.512,43.066Zm-20.546,16.719v2.9a4.9,4.9,0,0,1-4.9,4.9h-.32V64.323h.32a1.634,1.634,0,0,0,1.634-1.634V61.482h-4.29a1.885,1.885,0,0,1-1.885-1.885V53.923a1.885,1.885,0,0,1,1.885-1.885h5.673a1.884,1.884,0,0,1,1.884,1.886Zm13.214,0v2.9a4.9,4.9,0,0,1-4.9,4.9h-.32V64.323h.32a1.634,1.634,0,0,0,1.635-1.634V61.482h-4.29a1.885,1.885,0,0,1-1.885-1.885V53.923a1.885,1.885,0,0,1,1.885-1.885h5.673a1.884,1.884,0,0,1,1.884,1.886Z" transform="translate(-6.499 -6.517)"/><g transform="translate(1879.94 35.894)"><path class="c" d="M1923.013,35.894h-37.757a5.322,5.322,0,0,0-5.316,5.317v23.5a5.322,5.322,0,0,0,5.316,5.317h1.259v8.988a.655.655,0,0,0,.654.654.66.66,0,0,0,.384-.124l13.092-9.517h22.367a5.323,5.323,0,0,0,5.317-5.317v-23.5A5.323,5.323,0,0,0,1923.013,35.894Zm-35.844,32.823h-1.913a4.013,4.013,0,0,1-4.008-4.009v-23.5a4.013,4.013,0,0,1,4.008-4.009h37.756a4.014,4.014,0,0,1,4.009,4.009v23.5a4.014,4.014,0,0,1-4.009,4.009h-22.578a.657.657,0,0,0-.384.125l-12.226,8.887V69.371A.655.655,0,0,0,1887.169,68.717Z" transform="translate(-1879.94 -35.894)"/><path class="c" d="M2018.619,144.927h3.636v.553a.981.981,0,0,1-.979.981h-.32a.655.655,0,0,0-.654.654v3.268a.655.655,0,0,0,.654.654h.32a5.562,5.562,0,0,0,5.556-5.556v-8.765a2.542,2.542,0,0,0-2.539-2.539h-5.673a2.542,2.542,0,0,0-2.539,2.539v5.673A2.542,2.542,0,0,0,2018.619,144.927Zm4.944.553v-1.206a.655.655,0,0,0-.654-.654h-4.29a1.233,1.233,0,0,1-1.231-1.231v-5.673a1.233,1.233,0,0,1,1.231-1.231h5.673a1.233,1.233,0,0,1,1.231,1.231v8.765a4.23,4.23,0,0,1-3.914,4.235v-1.972A2.3,2.3,0,0,0,2023.563,145.48Z" transform="translate(-2003.65 -125.203)"/><path class="c" d="M2163.349,144.927h3.636v.553a.982.982,0,0,1-.981.981h-.318a.654.654,0,0,0-.654.654v3.268a.655.655,0,0,0,.654.654H2166a5.563,5.563,0,0,0,5.557-5.556v-8.765a2.542,2.542,0,0,0-2.539-2.539h-5.674a2.542,2.542,0,0,0-2.539,2.539v5.673A2.542,2.542,0,0,0,2163.349,144.927Zm4.944.553v-1.206a.655.655,0,0,0-.654-.654h-4.29a1.233,1.233,0,0,1-1.231-1.231v-5.673a1.233,1.233,0,0,1,1.231-1.231h5.674a1.233,1.233,0,0,1,1.231,1.231v8.765a4.229,4.229,0,0,1-3.914,4.235v-1.972A2.3,2.3,0,0,0,2168.293,145.48Z" transform="translate(-2135.166 -125.203)"/></g></g></g></svg>